<svg width="18" height="17" viewBox="0 0 18 17" fill="none" xmlns="http://www.w3.org/2000/svg">
<path opacity="0.5" d="M7.04297 9.9999C7.13384 9.99997 7.21614 10.0511 7.25098 10.1288C7.28556 10.2065 7.26619 10.2958 7.20215 10.3554L4.6709 12.5614C6.24643 13.9492 8.48412 14.4855 10.5889 13.9794C12.6939 13.4731 14.3678 11.9958 15.0146 10.0731L17.5918 10.8192C16.6596 13.59 14.2355 15.7113 11.1953 16.4169C8.15518 17.1223 4.93738 16.3104 2.7041 14.2743L0.384766 16.2958C0.320468 16.3555 0.222812 16.3739 0.138672 16.3417C0.0546279 16.3095 1.93258e-05 16.2326 0 16.1483V9.9999H7.04297ZM6.78613 0.253804C9.81883 -0.45577 13.0326 0.345438 15.2695 2.37001L17.6162 0.291889C17.6803 0.23245 17.7764 0.214168 17.8604 0.245991C17.9443 0.277863 17.9994 0.353359 18 0.437397V6.66689H10.9824C10.8914 6.66684 10.8092 6.61587 10.7744 6.53798C10.7396 6.46009 10.7588 6.36998 10.8232 6.31044L13.3203 4.09755C11.7436 2.71354 9.5066 2.18074 7.4043 2.68837C5.30208 3.19608 3.63129 4.67294 2.98535 6.59365L0.408203 5.84755C1.33787 3.0822 3.75363 0.963474 6.78613 0.253804Z" fill="white"/>
</svg>
