<svg width="24" height="24" viewBox="0 0 24 24" fill="none" xmlns="http://www.w3.org/2000/svg">
<path d="M11.7809 19.8548C12.374 19.8548 12.863 20.3038 12.9256 20.8808L12.9323 21.0062V22.848C12.9323 23.4845 12.4169 24 11.7809 24C11.1873 24 10.6987 23.5509 10.6361 22.9735L10.6294 22.848V21.0062C10.6294 20.3702 11.1449 19.8548 11.7809 19.8548ZM6.38139 17.6191C6.79901 18.0357 6.82884 18.6944 6.47088 19.1461L6.38139 19.2464L5.07861 20.5497C4.62939 20.9989 3.9 20.9989 3.45026 20.5497C3.03265 20.1326 3.00327 19.4734 3.36087 19.0217L3.45026 18.9214L4.75304 17.6191C5.20278 17.1688 5.93165 17.1688 6.38139 17.6191ZM18.8082 17.6191L20.111 18.9219C20.5607 19.3706 20.5607 20.1005 20.111 20.5497C19.6612 20.9989 18.9323 20.9989 18.4826 20.5497L17.1798 19.2469C16.7301 18.7972 16.7301 18.0683 17.1798 17.6191C17.6296 17.1699 18.359 17.1699 18.8082 17.6191ZM11.7809 6.31771C15.0344 6.31771 17.6823 8.96502 17.6823 12.2196C17.6823 15.4742 15.0344 18.1215 11.7809 18.1215C8.52678 18.1215 5.87948 15.4737 5.87948 12.2196C5.87948 8.96554 8.52678 6.31771 11.7809 6.31771ZM22.4103 11.0676C23.0463 11.0676 23.5617 11.5831 23.5617 12.2191C23.5617 12.8551 23.0463 13.3701 22.4103 13.3701H20.568C19.932 13.3701 19.4165 12.8551 19.4165 12.2191C19.4165 11.5831 19.932 11.0676 20.568 11.0676H22.4103ZM2.99322 11.0676C3.62922 11.0676 4.1447 11.5831 4.1447 12.2191C4.1447 12.8127 3.69566 13.3009 3.11912 13.3633L2.99374 13.3701H1.15148C0.515478 13.3701 0 12.8551 0 12.2191C0 11.6255 0.449039 11.1369 1.026 11.0744L1.15148 11.0676H2.99322ZM4.97817 3.79953L5.07861 3.88902L6.38139 5.19128C6.83113 5.64102 6.83113 6.36988 6.38139 6.81962C5.96378 7.23772 5.30548 7.26759 4.85349 6.90922L4.75304 6.81962L3.45026 5.51684C3.00052 5.06762 3.00052 4.33823 3.45026 3.88902C3.86788 3.4714 4.52617 3.44157 4.97817 3.79953ZM20.111 3.88849C20.5607 4.33823 20.5607 5.06762 20.111 5.51684L18.8082 6.81962C18.359 7.26936 17.6301 7.26936 17.1798 6.81962C16.7306 6.36988 16.7306 5.64102 17.1798 5.19128L18.4826 3.88849C18.9318 3.43928 19.6612 3.43928 20.111 3.88849ZM11.7809 0.438232C12.4169 0.438232 12.9323 0.953711 12.9323 1.58971V3.43197C12.9323 4.06745 12.4163 4.58293 11.7809 4.58293C11.1449 4.58293 10.6294 4.06745 10.6294 3.43197V1.58971C10.6294 0.953711 11.1449 0.438232 11.7809 0.438232Z" fill="white"/>
</svg>
